<svg xmlns="http://www.w3.org/2000/svg" viewBox="0 0 1000 1000" role="img" aria-label="Tétine — Planning Eloi">
  <rect width="1000" height="1000" fill="#026464"/>
  <g fill="#ffffff" transform="translate(500 500) scale(0.85) translate(-500 -500)">
    <path d="M499.94,670.41c-9.07,0-18.11,0-19.47-.07-162.24-6.41-233.74-52.42-246.42-61.58-1.26-.91-2.67-1.85-4.46-3-22.3-14.19-41.42-30.28-56.85-47.87-24-27.31-36.75-61.54-36.85-99-.1-33.76,10.24-67.06,29.1-93.76,32.19-45.58,82.13-61.92,130.33-42.66a182.53,182.53,0,0,1,20.93,9.94,115,115,0,0,1,14.22,9.4A314.82,314.82,0,0,0,401,382a16,16,0,0,1-12,29.67,347.52,347.52,0,0,1-77.93-44.38,84.27,84.27,0,0,0-10.32-6.86,150.6,150.6,0,0,0-17.3-8.21c-34.25-13.69-68.76-2-92.32,31.4-28.56,40.43-35.79,106,5.65,153.17,13.44,15.31,30.25,29.42,50,42,2.33,1.48,4.27,2.78,6.06,4.08,4.75,3.42,23.14,15.61,59.51,27.82,47.09,15.8,104.08,25.12,169.39,27.7,2.67.07,33.93.08,36.68,0,65.23-2.58,122.22-11.9,169.31-27.7,36.37-12.21,54.76-24.4,59.53-27.84,1.77-1.28,3.71-2.58,6.07-4.08,19.68-12.53,36.49-26.64,49.92-41.94,41.45-47.16,34.22-112.75,5.66-153.18-23.56-33.35-58.07-45.09-92.31-31.4a150.09,150.09,0,0,0-17.26,8.18,83.89,83.89,0,0,0-10.36,6.89A347.76,347.76,0,0,1,611,411.67,16,16,0,0,1,599,382a315.06,315.06,0,0,0,70.53-40.16,115.29,115.29,0,0,1,14.25-9.43,183,183,0,0,1,20.9-9.91c48.19-19.26,98.13-2.92,130.32,42.66,18.86,26.7,29.2,60,29.1,93.76-.1,37.44-12.85,71.67-36.86,99-15.42,17.58-34.54,33.67-56.81,47.85-1.82,1.15-3.23,2.09-4.47,3-12.7,9.17-84.2,55.18-246.41,61.59C518.17,670.39,509,670.41,499.94,670.41Z"/>
    <path d="M500,916A291.63,291.63,0,0,1,208.37,624.38a294.92,294.92,0,0,1,3-41.73A16,16,0,0,1,243,587.2a261.91,261.91,0,0,0-2.65,37.18C240.37,767.53,356.84,884,500,884S759.65,767.53,759.65,624.38a262.3,262.3,0,0,0-2.65-37.2,16,16,0,0,1,31.68-4.55,295.2,295.2,0,0,1,3,41.75A291.64,291.64,0,0,1,500,916Z"/>
    <path d="M500 854.64c-127 0-230.27-103.3-230.27-230.26 0-2.48 0-4.76.11-7a16 16 0 0 1 32 1c-.06 1.87-.09 3.82-.09 5.94 0 109.32 88.94 198.26 198.27 198.26S698.28 733.7 698.28 624.38c0-2.1 0-4-.09-5.94a16 16 0 0 1 32-1c.07 2.24.11 4.52.11 7C730.28 751.34 627 854.64 500 854.64ZM260 522.18a64 64 0 1 1 64-64A64.07 64.07 0 0 1 260 522.18Zm0-96a32 32 0 1 0 32 32A32 32 0 0 0 260 426.18ZM740 522.18a64 64 0 1 1 64-64A64.07 64.07 0 0 1 740 522.18Zm0-96a32 32 0 1 0 32 32A32 32 0 0 0 740 426.18Z"/>
    <path d="M549.88,538H450.13A71.21,71.21,0,0,1,379,466.86v-124a64.14,64.14,0,0,0-15.24-41.94c-20.09-23.29-30.7-50.78-30.7-79.51,0-37.37,17.82-72.29,50.18-98.31C414.58,97.89,456.05,84,500,84s85.42,13.89,116.76,39.1C649.13,149.13,667,184,667,221.41c0,28.73-10.62,56.22-30.7,79.51A64.09,64.09,0,0,0,621,342.86v124A71.21,71.21,0,0,1,549.88,538ZM500,116c-74.41,0-134.94,47.29-134.94,105.41,0,21,7.93,41.21,22.93,58.61a96.09,96.09,0,0,1,23,62.84v124A39.17,39.17,0,0,0,450.13,506h99.75A39.18,39.18,0,0,0,589,466.86v-124A96.13,96.13,0,0,1,612,280c15-17.4,22.94-37.66,22.94-58.61C635,163.29,574.41,116,500,116Z"/>
    <path d="M439.55 220.76c-8.77-.24-15.66-8.08-15.54-16.86.23-17.37 7.39-27.93 13.41-33.76a43.64 43.64 0 0 1 11.48-7.95 16 16 0 0 1 22.86 14.86l0 .8A15 15 0 0 1 463 190.91a12.12 12.12 0 0 0-3.42 2.33c-.88.88-3.57 3.55-3.57 11.53A16 16 0 0 1 439.55 220.76ZM490.76 324.44a16 16 0 0 1-5.53-31C508 285 523.4 272.17 531 255.26c12.6-28.27.23-60.08.1-60.4a16 16 0 0 1 29.66-12c.73 1.79 17.63 44.27-.39 85.1-11.14 25.27-32.68 43.94-64 55.49A15.87 15.87 0 0 1 490.76 324.44Z"/>
  </g>
</svg>
